<svg width="343" height="342" xmlns="http://www.w3.org/2000/svg" xmlns:xlink="http://www.w3.org/1999/xlink" xml:space="preserve" overflow="hidden"><defs><clipPath id="clip0"><rect x="757" y="226" width="343" height="342"/></clipPath><clipPath id="clip1"><rect x="757" y="226" width="343" height="342"/></clipPath><clipPath id="clip2"><rect x="758" y="227" width="341" height="341"/></clipPath><clipPath id="clip3"><rect x="758" y="227" width="341" height="341"/></clipPath></defs><g clip-path="url(#clip0)" transform="translate(-757 -226)"><g clip-path="url(#clip1)"><g clip-path="url(#clip2)"><g clip-path="url(#clip3)"><path d="M389.351 198.834C389.351 160.147 420.712 128.785 459.4 128.785L658.735 128.785C697.423 128.785 728.784 160.147 728.784 198.834L728.784 398.17C728.784 436.857 697.423 468.219 658.735 468.219L459.4 468.219C420.712 468.219 389.351 436.857 389.351 398.17Z" fill="#0E2841" fill-rule="evenodd" fill-opacity="1" transform="matrix(1.00111 0 0 1 369.299 98.2078)"/><text fill="#FFFFFF" fill-opacity="1" font-family="MiSans Heavy,MiSans Heavy_MSFontService,sans-serif" font-style="normal" font-variant="normal" font-weight="700" font-stretch="normal" font-size="276" text-anchor="start" direction="ltr" writing-mode="lr-tb" unicode-bidi="normal" text-decoration="none" transform="matrix(0.99944 0 0 0.998335 841.034 504)">R</text><text fill="#46B1E1" fill-opacity="1" font-family="MiSans Heavy,MiSans Heavy_MSFontService,sans-serif" font-style="normal" font-variant="normal" font-weight="700" font-stretch="normal" font-size="276" text-anchor="start" direction="ltr" writing-mode="lr-tb" unicode-bidi="normal" text-decoration="none" transform="matrix(0.99944 0 0 0.998335 813.297 484)">P</text></g></g></g></g></svg>